<svg width="192" height="192" viewBox="0 0 192 192" fill="none" xmlns="http://www.w3.org/2000/svg">
<path d="M143 21L44 171" stroke="black" stroke-width="10" stroke-linecap="round"/>
<path d="M97.8584 36.4236C100.975 38.7109 105.356 38.0386 107.643 34.9219C109.931 31.8052 109.258 27.4243 106.142 25.137L97.8584 36.4236ZM44 57.3406L51 57.3406L44 57.3406ZM86 102H93V88H86V102ZM106.142 25.137C89.9963 13.2879 72.5237 13.9715 59.2157 21.444C46.2932 28.6999 37 42.5685 37 57.3406L51 57.3406C51 48.3482 56.8973 38.8017 66.07 33.6512C74.8573 28.7172 86.3846 28.003 97.8584 36.4236L106.142 25.137ZM37 57.3406C37 71.4902 44.1857 82.7798 53.6426 90.3268C62.9996 97.7942 75.0257 102 86 102V88C78.3315 88 69.3576 84.9565 62.3753 79.3842C55.4929 73.8917 51 66.3516 51 57.3406L37 57.3406Z" fill="black"/>
<circle cx="58" cy="115" r="7" fill="black"/>
<path d="M90.1788 155.496C87.0772 153.188 82.692 153.831 80.3841 156.933C78.0763 160.034 78.7197 164.42 81.8212 166.728L90.1788 155.496ZM144 134.182L137 134.182L137 134.182L144 134.182ZM102 89H95V103H102V89ZM81.8212 166.728C97.9785 178.75 115.49 178.062 128.82 170.473C141.756 163.108 151 149.071 151 134.182L137 134.182C137 143.389 131.053 153.092 121.894 158.306C113.129 163.296 101.641 164.025 90.1788 155.496L81.8212 166.728ZM151 134.182C151 119.912 143.852 108.497 134.394 100.844C125.039 93.2742 113.001 89 102 89V103C109.642 103 118.604 106.076 125.588 111.727C132.469 117.295 137 124.971 137 134.182L151 134.182Z" fill="black"/>
<circle cx="130" cy="77" r="7" transform="rotate(180 130 77)" fill="black"/>
</svg>
