<svg width="192" height="192" viewBox="0 0 192 192" fill="none" xmlns="http://www.w3.org/2000/svg">
<path d="M106.132 109C106.132 116.105 104.733 122.39 102.608 126.786C100.382 131.393 97.8831 133 96.0816 133C94.2801 133 91.7813 131.393 89.5549 126.786C87.4298 122.39 86.0316 116.105 86.0316 109C86.0316 101.895 87.4298 95.6104 89.5549 91.2136C91.7813 86.6072 94.2801 85 96.0816 85C97.8831 85 100.382 86.6072 102.608 91.2136C104.733 95.6104 106.132 101.895 106.132 109Z" stroke="black" stroke-width="6" stroke-linejoin="round"/>
<path d="M100.937 117.406C94.7746 120.963 88.6412 122.93 83.791 123.337C78.6816 123.766 76.1312 122.441 75.2992 121C74.4672 119.559 74.5948 116.688 77.521 112.477C80.2988 108.48 85.0688 104.152 91.2308 100.594C97.3929 97.0368 103.526 95.07 108.377 94.6628C113.486 94.2339 116.036 95.5589 116.868 97C117.7 98.4411 117.573 101.312 114.647 105.523C111.869 109.52 107.099 113.848 100.937 117.406Z" stroke="black" stroke-width="6" stroke-linejoin="round"/>
<path d="M100.936 100.595C107.099 104.152 111.869 108.481 114.646 112.477C117.572 116.688 117.7 119.559 116.868 121C116.036 122.441 113.486 123.766 108.376 123.337C103.526 122.93 97.3927 120.963 91.2306 117.406C85.0685 113.848 80.2985 109.52 77.5207 105.523C74.5946 101.312 74.4669 98.4413 75.2989 97.0002C76.1309 95.5591 78.6813 94.234 83.7907 94.663C88.641 95.0702 94.7744 97.037 100.936 100.595Z" stroke="black" stroke-width="6" stroke-linejoin="round"/>
<circle cx="96.048" cy="109" r="4.5" fill="black"/>
<path d="M69.8462 148.518C69.8462 146.309 68.0553 144.518 65.8462 144.518C60.3795 144.518 56 140.128 56 134.776V74.6588C56 69.3237 57.0588 64.04 59.1168 59.1093C61.1748 54.1786 64.1921 49.6964 67.9978 45.9194C71.8037 42.1425 76.3235 39.1448 81.3001 37.0991C86.2767 35.0533 91.6116 34 97 34C102.388 34 107.723 35.0533 112.7 37.0991C117.676 39.1448 122.196 42.1425 126.002 45.9194C129.808 49.6964 132.825 54.1786 134.883 59.1093C136.941 64.04 138 69.3237 138 74.6588V134.776C138 140.128 133.62 144.518 128.154 144.518H127.288C125.079 144.518 123.288 146.309 123.288 148.518V165.694C123.288 169.148 120.459 172 116.904 172C113.349 172 110.519 169.148 110.519 165.694V148.518C110.519 146.309 108.728 144.518 106.519 144.518H86.6154C84.4062 144.518 82.6154 146.309 82.6154 148.518V165.694C82.6154 169.148 79.7857 172 76.2308 172C72.6759 172 69.8462 169.148 69.8462 165.694L69.8462 148.518Z" stroke="black" stroke-width="8" stroke-linejoin="round"/>
<path d="M71 40.7846L59 20" stroke="black" stroke-width="8" stroke-linecap="round"/>
<path d="M133 20L121 40.7846" stroke="black" stroke-width="8" stroke-linecap="round"/>
<rect x="148" y="75" width="16" height="62" rx="8" stroke="black" stroke-width="8"/>
<rect x="30" y="75" width="16" height="62" rx="8" stroke="black" stroke-width="8"/>
<line x1="57" y1="73" x2="137" y2="73" stroke="black" stroke-width="8"/>
</svg>
