<svg width="192" height="192" viewBox="0 0 192 192" fill="none" xmlns="http://www.w3.org/2000/svg">
<path d="M82.9864 71.6786C76.6517 63.927 67.1522 59 56.5333 59C37.4611 59 22 74.8939 22 94.5C22 114.106 37.4611 130 56.5333 130C62.6544 130 68.4035 128.363 73.3889 125.491C78.1866 122.728 82.2771 118.821 85.3111 114.13L106.567 75.0595C109.717 70.1212 114.032 66.0391 119.111 63.2262C123.979 60.53 129.549 59 135.467 59C154.539 59 170 74.8939 170 94.5C170 114.106 154.539 130 135.467 130C124.467 130 114.668 124.713 108.344 116.476" stroke="black" stroke-width="12" stroke-linecap="round" stroke-linejoin="round"/>
</svg>
